<?xml version="1.0" standalone="no"?><!DOCTYPE svg PUBLIC "-//W3C//DTD SVG 1.1//EN" "http://www.w3.org/Graphics/SVG/1.1/DTD/svg11.dtd"><svg class="icon" width="64px" height="64.00px" viewBox="0 0 1024 1024" version="1.1" xmlns="http://www.w3.org/2000/svg"><path d="M512 106.00326637C287.01127111 106.00326637 106.00326637 287.01127111 106.00326637 512c0 224.98872889 181.00679111 405.99673363 405.99673363 405.99673363 224.98872889 0 405.99673363-181.00679111 405.99673363-405.99673363C917.99916089 287.01127111 736.98872889 106.00326637 512 106.00326637ZM765.74689659 410.49929955L496.77622992 679.47239348C478.16886045 698.08219022 444.33286637 698.08219022 425.72549689 679.47239348L258.25310341 512c0 0-25.37468965-25.37468965 0-50.74974341s50.74974341 0 50.74974341 0l152.2486234 152.24862341 253.7468966-253.74689659c0 0 25.37468965-25.37468965 50.7497434 0S765.74689659 410.49929955 765.74689659 410.49929955Z" fill="#318FF3" /></svg>