<?xml version="1.0" standalone="no"?><!DOCTYPE svg PUBLIC "-//W3C//DTD SVG 1.1//EN" "http://www.w3.org/Graphics/SVG/1.1/DTD/svg11.dtd"><svg class="icon" width="64px" height="64.00px" viewBox="0 0 1024 1024" version="1.1" xmlns="http://www.w3.org/2000/svg"><path d="M388.08357046 97.71115214l-362.96552291 362.96552292c-28.34766519 28.34766519-28.34766519 74.29910036 0 102.64664988l362.96552291 362.96552292c28.34766519 28.34766519 74.29910036 28.34766519 102.64664989 0 28.34766519-28.34766519 28.34766519-74.29910036 0-102.64664989l-239.04909337-239.04909338 695.87750052 0c40.10774813 0 72.59310458-32.48547215 72.59310457-72.59310459s-32.48547215-72.59310458-72.59310457-72.59310459l-695.87750052 0 239.04909337-239.04909338c14.15565541-14.15565541 21.26977964-32.73949017 21.26977965-51.32332494s-7.07788554-37.16766955-21.26977965-51.32332495c-28.34766519-28.34766519-74.29910036-28.34766519-102.64664989 0z" fill="#ffffff" /></svg>